# xmcd
#
# Track frame offsets: 
#        150
#        16765
#        31565
#        45435
#        60960
#        75375
#        94372
#        117550
#        132620
#        149377
#
# Disc length: 2204 seconds
#
# Revision: 2
# Processed by: cddbd v1.4PL0 Copyright (c) Steve Scherf et al.
# Submitted via: ExactAudioCopy v0.90b4
#
DISCID=78089a0a
DTITLE=John Berry - Faces
DYEAR=1996
DGENRE=
TTITLE0=She's Taken a Shine
TTITLE1=Change My Mind
TTITLE2=I Will, If You Will
TTITLE3=He Doesn't Even Know her
TTITLE4=Faithfully
TTITLE5=Livin' On Love
TTITLE6=Time To Be a Man
TTITLE7=Forty Again
TTITLE8=Love Is Everything
TTITLE9=I Give My Heart
EXTD=
EXTT0=
EXTT1=
EXTT2=
EXTT3=
EXTT4=
EXTT5=
EXTT6=
EXTT7=
EXTT8=
EXTT9=
PLAYORDER=
